<svg id="Capa_1" data-name="Capa 1" xmlns="http://www.w3.org/2000/svg" viewBox="0 0 1064 980"><defs><style>.cls-1{fill:#fdfdfd;}.cls-2{fill:#feb600;}.cls-3{fill:#feb300;}.cls-4{fill:#feb400;}.cls-5{fill:#feaf00;}.cls-6{fill:#feae00;}.cls-7{fill:#ee002d;}.cls-8{fill:#fea800;}.cls-9{fill:#fe801c;}.cls-10{fill:#fea200;}.cls-11{fill:#010101;}.cls-12{fill:#fe8517;}.cls-13{fill:#fe5d27;}.cls-14{fill:#fe7f1b;}.cls-15{fill:#fe6525;}.cls-16{fill:#fe6625;}.cls-17{fill:#fe7222;}.cls-18{fill:#fe7720;}.cls-19{fill:#fe4c29;}.cls-20{fill:#fe781e;}.cls-21{fill:#fd3f2b;}.cls-22{fill:#fe7123;}.cls-23{fill:#f9222c;}.cls-24{fill:#fe5229;}.cls-25{fill:#fd432a;}.cls-26{fill:#fd472b;}.cls-27{fill:#fe6326;}.cls-28{fill:#fc352b;}.cls-29{fill:#fd482a;}.cls-30{fill:#fd342c;}.cls-31{fill:#f31b2d;}.cls-32{fill:#f7262d;}.cls-33{fill:#020202;}.cls-34{fill:#fd542a;}.cls-35{fill:#fe442a;}.cls-36{fill:#fc3e2c;}.cls-37{fill:#f5142c;}.cls-38{fill:#fb362c;}.cls-39{fill:#e6092e;}.cls-40{fill:#fe5c26;}.cls-41{fill:#f4062c;}.cls-42{fill:#f83a2c;}.cls-43{fill:#ef322e;}.cls-44{fill:#fe900c;}.cls-45{fill:#fc562a;}.cls-46{fill:#f23528;}.cls-47{fill:#fe9207;}.cls-48{fill:#cf282d;}.cls-49{fill:#ea3f2d;}.cls-50{fill:#f04739;}.cls-51{fill:#fd352c;}.cls-52{fill:#fefefe;}.cls-53{fill:#f8c44e;}.cls-54{fill:#f4c864;}.cls-55{fill:#fdac19;}.cls-56{fill:#fab02f;}.cls-57{fill:#f2072c;}.cls-58{fill:#f3b553;}.cls-59{fill:#fea201;}.cls-60{fill:#fe8418;}.cls-61{fill:#fe9b01;}.cls-62{fill:#f9a535;}.cls-63{fill:#fca424;}.cls-64{fill:#f5a83e;}.cls-65{fill:#fe9504;}.cls-66{fill:#fe8b11;}.cls-67{fill:#ef974e;}.cls-68{fill:#fb702d;}.cls-69{fill:#fd5129;}.cls-70{fill:#fc2a2b;}.cls-71{fill:#fd4e29;}.cls-72{fill:#f03a31;}.cls-73{fill:#f5102b;}.cls-74{fill:#f9212b;}.cls-75{fill:#fe8b12;}.cls-76{fill:#fe9b00;}.cls-77{fill:#fc2a2a;}.cls-78{fill:#fe7820;}.cls-79{fill:#fc5f29;}.cls-80{fill:#fc8b2d;}.cls-81{fill:#fc9625;}.cls-82{fill:#f59f34;}.cls-83{fill:#f89a31;}.cls-84{fill:#f68f35;}.cls-85{fill:#f9984a;}</style></defs><title>Mesa de trabajo 1</title><path class="cls-1" d="M-53,500.5q0-293.5-.09-587c0-3.75.84-4.59,4.59-4.59q587,.15,1174,0c3.75,0,4.59.84,4.59,4.59q-.15,587,0,1174c0,3.75-.84,4.59-4.59,4.59q-587-.15-1174,0c-3.75,0-4.6-.84-4.59-4.59Q-52.93,794-53,500.5Z"/><path class="cls-1" d="M-55.48,504.39q0-293.5-.09-587c0-3.75.84-4.59,4.59-4.59q587,.15,1174,0c3.75,0,4.59.84,4.59,4.59q-.15,587,0,1174c0,3.75-.84,4.59-4.59,4.59q-587-.15-1174,0c-3.75,0-4.6-.84-4.59-4.59Q-55.42,797.89-55.48,504.39Z"/><path class="cls-2" d="M253.76,194.09c-5.75-33.52,5.32-69.72,41.09-87.34,30.71-15.12,60.77-12.66,90.46,2.67,27.36,14.12,48.09,35.57,65.93,60.17q11.54,15.91,23.28,31.68c1,1.35,1.71,3.69,3.92,3.41,2.54-.32,2.43-2.91,3-4.69,6.31-21.12,13.14-42.06,20.8-62.73,13.53-36.55,37-63.49,74-77.87,38.75-15.07,87.87-4.8,114.32,24.38,15,16.51,23,36.2,26.42,58,.79,5.08,1.08,10.23,1.6,15.35a23,23,0,0,0-1.45,5.26c-.35,1.91-1.37,3.77-3.22,4.13-4.48.85-4.75,3.86-4.58,7.43.21,4.33-.9,8-5.66,9.35a3.76,3.76,0,0,0-2.47,2.91c-.38,1.3-.85,2.77-2.07,3.3-4.83,2.11-5.28,6.45-5.71,10.78-.33,3.23-1.41,5.84-4.78,6.87a5.76,5.76,0,0,0-3.8,3.66,6.62,6.62,0,0,1-4.17,4,5.1,5.1,0,0,0-3.62,3.73c-.89,3.11-3,4.85-6.32,4.44-3.56-.44-7.06-1.27-7.35-5.91,2-8.74,4.94-17.3,5.75-26.27,1.63-18,1.43-35.66-10.95-50.76a54.27,54.27,0,0,0-21.59-15.69c-19.86-8.26-39.84-9.6-59.07,1.55C564,133.73,555.09,146,547.72,159.48c-7.66,14-11.75,29.31-16.32,44.44-5.44,18-10.22,36.22-17.11,53.75-2.66,6.77-6.51,12.77-13.47,16.05a19.32,19.32,0,0,0-4.78,2c-11.07,3.74-19.43-1.74-27-8.56s-13.36-15.23-19.62-23.2c-16-20.4-31.11-41.54-48.26-61-9.85-11.18-22.67-18.33-36.9-22.81a93.33,93.33,0,0,1-9-2.83c-6.61-1.44-13.21-1.72-19.78.22-20.32,6.26-31.09,20.75-34.62,41-2.21,12.68.77,24.74,5.81,36.42,1.61,3.72,4.54,7,4.39,11.39-.49.44-1.17,1.14-1.71.7-3.72-3-7.51-2.1-11.69-1-4.72,1.27-6.36,0-8.13-4.62-.18-.46-.25-1.31-.53-1.34-6-.64-6.69-7.74-11.53-9.61-2.85-1.1-3.78-2.95-3.81-5.69,0-1.83-.1-3.66,0-5.49.11-2.88-.71-4.91-4-5.08-.66,0-1.68-.15-1.83-.61-2.31-7.07-13.92-9.2-10.32-19.39a1.87,1.87,0,0,0-.2-1.53C256.24,193.53,255.53,195.29,253.76,194.09Z"/><path d="M366.24,741.14c0,3.67-.21,6.85.06,10,.26,3-1.21,4.71-3.38,6.12-13.79,9-28.8,12.51-45.27,11-17.24-1.55-32.64-7.35-46.16-18-15.77-12.48-24.82-28.67-27.53-48.75-2.75-20.47,1.72-38.7,14.64-54.79,12.27-15.28,28.68-24,47.27-28.86,27.84-7.25,54.43-4,78.24,12.57,17.88,12.49,28.69,30.08,30.75,52.13,2.52,26.9.42,53.89,1.09,80.83.06,2.46-1.12,2.6-3,2.59-10.66-.06-21.33-.18-32,.05-4,.08-3.18-2.36-3.18-4.56,0-23.82.26-47.65-.1-71.46-.25-16.26-3.76-31.85-13.82-45.16-7.66-10.12-18-15.38-30.81-16-12.12-.54-23.14,2-32.29,10.3-7.56,6.83-12.13,15.54-15,25.27-6.16,20.78-5.51,41.21,4.3,60.63,7.25,14.34,19.77,21.6,35.82,23.08a82.73,82.73,0,0,0,33.89-3.94A59.13,59.13,0,0,0,366.24,741.14Z"/><path d="M974.92,741.51a15.68,15.68,0,0,0,0,3.25c2.18,9.37-3.3,13.8-10.76,17.16-20.92,9.45-42.06,8.84-62.89.39-23.82-9.66-40.49-26.58-46.78-51.93-8-32.25,3.13-62.9,33.39-81.3,16.3-9.91,34.17-15.15,53.07-14.8,23.92.44,46,7.2,62.87,25.36,11.15,12,18.67,26,20.07,42.7,2.25,26.94.35,53.92,1.06,80.87.08,2.87-1.41,2.74-3.38,2.73-10.17,0-20.34-.18-30.5.06-3.52.08-4.44-.94-4.42-4.42.15-23.16.32-46.33,0-69.49-.21-15.51-3.33-30.26-11.48-44-13.72-23.1-47.34-24.27-63.89-10.19-9.68,8.24-14.85,18.71-17.76,30.66C888.81,688,889.83,707.07,899,725c7.43,14.52,20,21.62,36.17,23.14a83.76,83.76,0,0,0,33.87-4.09C970.9,743.48,972.63,742.52,974.92,741.51Z"/><path d="M178.08,722.68c0-12.17.27-24.34-.06-36.5-.45-16.6-5-32-16.19-44.62-9.71-10.95-22.51-15.58-37.13-14.13-25,2.47-37.82,21.88-42.76,43.4a94.18,94.18,0,0,0-2.06,21.66c.12,22.83-.09,45.67.16,68.5,0,4.32-1.21,5.17-5.23,5-9.66-.31-19.33-.17-29-.05-2.53,0-3.83-.16-3.81-3.34.14-26.16-.73-52.36.29-78.49,1.3-33.49,22.22-58.65,56-67.87,23.29-6.35,46.8-5.87,69.67,2.8,25.65,9.72,41.38,28.18,46.77,55A70.67,70.67,0,0,1,216,688.44q-.28,36.5,0,73c0,3.82-1,4.68-4.67,4.58-9.83-.27-19.67-.22-29.49,0-3.06.06-3.91-.69-3.86-3.82C178.19,749,178.08,735.84,178.08,722.68Z"/><path d="M691.08,662.44c0-16.51.08-30-.07-43.5,0-2.91.46-4,3.73-3.94,10.16.25,20.33.17,30.49,0,2.61,0,3.76.33,3.75,3.41-.13,27.16.47,54.34-.28,81.48-.42,15.2-6.52,28.87-16.7,40.46-14.08,16-32.08,24.15-53,26.58-23,2.66-45.32,1.2-66-10.11q-29.16-15.92-36-48.73a66.67,66.67,0,0,1-1.12-13.27c-.17-25.33,0-50.66-.17-76,0-3.09.83-3.93,3.9-3.87,10,.2,20,.23,30,0,3.34-.08,3.72,1.2,3.71,4-.09,24.33-.2,48.66,0,73,.13,14.6,3.63,28.24,11.52,40.88,15.05,24.12,49,27,68.26,8.31,9.7-9.44,14.89-21.62,17-35C692.47,690.7,690.29,675,691.08,662.44Z"/><path d="M532.92,773.93c0,2.9-.37,5.6.08,8.15.9,5.12-1.68,7-6.13,7.73a70.5,70.5,0,0,1-50.3-10c-12-7.51-18.13-19.4-21.43-32.77-2.54-10.3-3.15-20.81-3.12-31.44q.21-81.21,0-162.43c0-4,.7-5.4,5-5.23,9.48.38,19,.34,28.48,0,3.93-.14,4.55,1.17,4.51,4.72-.18,19.16.07,38.32-.21,57.47-.06,4.34,1.22,5.16,5.22,5,8.65-.32,17.32,0,26-.16,2.85-.05,4.19.36,4,3.71a146.44,146.44,0,0,0,0,16.48c.18,3.24-1,3.84-3.93,3.78-9-.19-18,.13-27-.16-3.64-.12-4.35,1.06-4.24,4.44.5,16,1.27,31.92.9,47.86-.27,12.11-.66,24.24-.73,36.35a81.33,81.33,0,0,0,4.79,29.46c4.64,12.35,12.35,18.19,25.45,18.09C524.33,775,528.49,775.85,532.92,773.93Z"/><path d="M849.23,631.78c-9.59-1.59-18.52-1.87-27.22,1.19-6.38,2.24-10.48,7.18-13.52,13a53.71,53.71,0,0,0-6.64,25.78c.19,30.16,0,60.33.18,90.49,0,4-1.12,4.92-4.93,4.82-9.66-.27-19.33-.25-29,0-3.58.09-4.43-1.08-4.4-4.5.22-30.49-.94-61,.75-91.44,1.47-26.37,14.94-48.51,44.16-55.49,12.34-2.95,25.1-2.8,37.69-.47,1.6.3,2.88,1,2.91,2.84C849.27,622.55,849.23,627.17,849.23,631.78Z"/><path class="cls-3" d="M664.38,217c.57,4.27,4,4.68,7.17,4.89,3.38.22,4.56-2.16,4.46-5.26-.06-1.93,1-2.59,2.76-2.68,1,0,2.51-.28,2.73-.86,2.74-6.87,13.39-8.82,11.53-18.56-.27-1.41-.35-3.44,1.31-4,3.69-1.16,6.23-2.9,5.91-7.26-.07-.93,1-1.23,1.86-1.26,5.26-.2,6.12-3.62,5.9-7.91-.09-1.66,0-3.33,0-5-.07-2,.55-3.21,2.79-3.15,3.47.09,5.39-1.57,5.18-5.11-.13-2.08,1.11-3,2.61-3.8a19.17,19.17,0,0,1,.22,6.87c-.33.3-.91.42-.77,1.06a.68.68,0,0,1,.78,0c.36,13.9-2.95,27.18-6.6,40.44A341.68,341.68,0,0,1,696.92,250c-2.52,1.85-4.37,4.51-7.37,5.8-1.62.7-2.21,2.36-2.59,4-1.78,7.76-6.2,13-14.29,14.49a5.77,5.77,0,0,0-4,2.67,31,31,0,0,1-5.37,5.87c-2,1.82-4,2.51-5.67-.44-.68-1.17-1.93-2.55-3.14-1.43-1.51,1.4.38,2.23,1.36,2.91,2.64,1.84,2.21,3.89.36,5.86-1.71,1.82-3.8,3.17-5.88.6-1.31-1.63-2.48-2.1-4.12-.73-2,1.65.47,2.1.93,3,1.31,2.7,0,4.25-2.33,4.95-2.53.76-4.44,1.26-4.4,4.78s-3.69.27-5.06,1.91c-2.46-2.16-1.49-4.87-1.19-7.45.79-6.9,4.26-12.94,6.53-19.34,3.23-9.09,6.58-18.14,9.79-27.24a19.89,19.89,0,0,1,2.72-5.85c3.77-1.52,1.83,2.22,3,2.87.28-2.06,1.8-4.53-.77-6.63a4.31,4.31,0,0,1,1.13-4.61c1.77-1,3.11.67,4.7.78,2.42.17,4.28-.85,5-3.16.68-2.11-.38-3.5-2.53-4s-3.31-1.92-1.29-3.32c3.27-2.27.72-3.83-.1-5.69C662.31,219,662.59,217.58,664.38,217Z"/><path class="cls-4" d="M253.76,194.09a2.62,2.62,0,0,0,2-1.18c.6-1-.65-3.23,1.41-3,2.25.24,1.73,2.44,1.78,4,.05,2-.18,3.92-.15,5.9.06,3.54.57,5.77,4.9,5.26,2.61-.31,3.44,1.66,3.23,3.94-.28,3,.94,4.38,4,4,3.47-.47,4.33,1.34,4.08,4.4-.17,2,.07,4-.05,6-.19,3.19.27,4.82,4.16,6.22,4.41,1.6,5.36,8.87,11.57,9.21.1,0,.16.6.24.92,1.42,5.82,3.52,6.67,9.32,4.05,3.07-1.39,6.13-1.6,8.37,1.62.53.77.9,1.41,1.86.61,3.22,1.11,3.67,4.48,5.28,6.81,13.91,20.12,30.12,38.35,46,56.82,1.42,1.65,3.77,2.94,3.23,5.76-3.11,2-6.72,2.73-10.1,4-4.39,1.69-7.18.49-8.58-4-1.19-3.83-3.38-4.31-6.75-3.89-6.67.84-7.33.52-9.77-5.47-1-2.39-2.61-2.87-4.7-2.71-5.25.41-9.45-1-12.12-6-2.05-3.78-3.33.61-5,.65-10.2-12.23-19.41-25.19-28.67-38.13A138.61,138.61,0,0,1,253.76,194.09Z"/><path d="M780.23,880.22c5.69-3.39,10.9-5.92,16.93-6.17,15.55-.64,26.8,9.17,30.43,24.37,3.09,13,1.95,25.58-6.32,37-5.42,7.51-13.13,11.09-21.41,12.16-10.22,1.32-20.66.68-30.54-3.54-2.63-1.13-3.31-2.33-3.3-5q.13-47.93,0-95.85c0-3,.34-4.3,3.91-4.26,10.29.13,10.29-.06,10.29,10.37C780.23,859.34,780.23,869.32,780.23,880.22Z"/><path d="M54.92,881.17c8.3-5.32,16.47-7.53,25.68-5.2,11.58,2.93,18,10.88,21.22,21.62,3.84,12.78,2.85,25.31-4.53,36.75-6.25,9.69-15.7,14-27,14.57a61.26,61.26,0,0,1-25.59-3.64c-2.51-1-3.78-2.09-3.76-5.22q.24-48,0-96c0-3.57,1.06-4.44,4.49-4.4,9.43.11,9.43,0,9.43,9.25C54.92,859.42,54.92,869.92,54.92,881.17Z"/><path class="cls-5" d="M308,298c-.28-2,1.85-2.55,2.55-4,.85-1.74,1.9-1.12,2.34.2,2.34,6.92,7.4,8.72,14.05,7.75,2.9-.42,4,.7,4.2,3.82.21,4.09,2.69,5.75,6.87,4.73a38.26,38.26,0,0,1,5.39-.55c2.42-.23,3.4.64,3.71,3.29.66,5.56,3.08,7,8.14,4.67a52.11,52.11,0,0,1,9.8-3c.33-.08.75-.25,1-.1,8,5.88,15,12.9,17.1,22.88,1.65,7.73-2.09,12.81-9.76,14.05-7.88,1.27-15.89,1.34-23.48-2-2.72-2.29-6-1.2-9-1.39-3.49-.2-7-.41-10.08-2.26-2.85-2.47-6.3-4.25-8.26-7.75a5.74,5.74,0,0,0-4.13-2.61c-10.4-1-16.06-9.58-24.09-14.33-6-3.57-11.31-8.33-17.77-11.18a6.12,6.12,0,0,1-3.16-3.67,7.7,7.7,0,0,0-5.19-4.91c-2.63-.82-4.06-2.51-1.06-4.85l47.17,11.79-1.33-4.48a4.09,4.09,0,0,0-2.67-3.18C309.42,300,308.12,299.49,308,298Z"/><path class="cls-6" d="M635.86,304c1.8-1.07,4.78-1.19,3.25-4.74-.49-1.13.5-2.17,2-2.24,2.13-.11,4.81.26,5.58-2.22,1-3.11-3.2-2.17-4.09-4.31a23.61,23.61,0,0,0,4-2.72c2.12-2.15,3.36-1.58,4.2,1,.38,1.15.7,2.49,2.25,2a5.66,5.66,0,0,0,3.71-3.76c.47-1.56-.93-1.82-2-2.22-1.68-.6-2.91-1.53-2.68-3.63a2.11,2.11,0,0,1,2.23-2.12c2-.18,3.76.17,4.35,2.35,1,3.56,2.48,2.21,4,.51,1.85-2.1,4.46-3.56,5.44-6.38.58-1.67,2-2.12,3.49-2.42,8.36-1.7,12.14-5.63,13.94-13.57.53-2.34,1.31-5.35,4.86-5.56,2.86-.16,2.95-5.05,6.61-4l-.25,1.1c-.76,1.57-1.56,3.13-1.08,5,.32-.12.81-.63,1.5-.59a1.53,1.53,0,0,0,.88-.33c12.13-5.43,23.69-12.1,36.17-16.79,3.41.2,4.2.71,2.95,4.88-2.23,7.43-7.24,12-12.65,16.65-3.3,2.83-5.43,6.68-8.29,9.93-8.59,9.74-18.62,17.95-27.7,27.15a13.49,13.49,0,0,0-4.07,6.72c-2.37,2.83-5.85,3.39-9.09,4.43-1.94.08-3.83.27-5,2.15-8.55,4.56-17.55,6-27,3.53C637.76,312.35,635.11,308.59,635.86,304Z"/><path d="M228.92,925.79c0,1.92,0,3.21,0,4.51,0,10.87.19,11.34-9.92,15-11.55,4.13-23.41,5.07-34.56-1.56-9.82-5.84-15-15.22-16.15-26.12-1.22-11.29-.52-22.51,7.47-32.08,7.56-9,17.36-12.72,28.36-11.15,17,2.43,28.78,20.51,25.86,37.64-.48,2.82-2.28,1.9-3.67,1.9-13.81.06-27.62,0-41.44,0H182.4C183.8,932.88,203.46,942,228.92,925.79Z"/><path d="M907.55,912.92c1.67,16.83,15.09,23.25,30.35,19.61,5.73-1.37,10.68-4.4,16-7.28,0,1.78,0,3.1,0,4.41,0,11.25.17,11.71-10.86,15.12-14.33,4.43-28.5,4.77-39.81-7.26-15.25-16.21-13.72-47.61,5-59.27,16.65-10.38,40.38-5,45.71,19,.87,3.91.79,7.86,1.3,11.77.39,3-.57,4-3.77,4C937,912.82,922.5,912.92,907.55,912.92Z"/><path d="M443.92,924.9c0,3.12-.39,5.51.08,7.73,1.11,5.3-1.76,7.9-6,9.73-13,5.65-26.3,7.62-39-.11-12.17-7.42-16.36-19.4-16.2-33.23.12-10.26,3-19.37,11-26.2,9.65-8.24,20.7-9.94,32.52-5.72,10.7,3.82,15.27,12.69,17.45,23a42.5,42.5,0,0,1,1.23,9.29c0,3.06-.79,3.93-3.9,3.89-13.48-.17-27-.08-40.46-.07-2.31,0-4.19-.87-3,3.53,4.28,16.41,16.89,17.71,29.26,15.8C433,931.64,438.45,928.67,443.92,924.9Z"/><path d="M266.29,883.89c6.33-5.56,12.57-9.78,20.54-9.77,13.11,0,21.09,8.34,22.93,20,2.65,16.65.69,33.53,1.15,50.3,0,.5.16,1.31-.07,1.45-3.94,2.38-8.26.77-12.4,1-2.71.14-1.64-2.42-1.65-3.81-.08-11.49,0-23-.08-34.48a56.89,56.89,0,0,0-.89-11.86c-2.48-11-14.2-14.23-23.49-6.61-4.13,3.39-6.56,7.1-6.3,13.07.58,13.3.09,26.65.26,40,0,3-.74,3.91-3.86,3.91-10.38,0-10.38.15-10.38-10.27,0-18.33.25-36.66-.16-55-.12-5.36,1.61-6.8,6.38-6a3.07,3.07,0,0,0,.5,0C266.19,875.75,266.19,875.75,266.29,883.89Z"/><path d="M992.18,883.41c4.51-4.82,9-7.91,14.83-9.43,13.82-3.63,25.52,6.17,27.9,18,2.08,10.35.67,20.84,1,31.26.2,6.49-.1,13,.1,19.48.09,2.73-.88,3.23-3.39,3.28-10.52.2-10.52.29-10.52-10.05,0-11,.28-22-.08-33-.33-10.3-3.5-15.17-9.95-17.4-8.28-2.86-20.14,5.2-20.14,13.89,0,14.16-.12,28.32.08,42.47,0,3.29-.83,4.11-4.09,4.08-10.14-.1-10.14.05-10.14-10,0-18.49.19-37-.13-55.46-.08-4.8,1.5-6.14,5.8-5.44a3.14,3.14,0,0,0,.5,0C991.67,875.08,991.67,875.08,992.18,883.41Z"/><path d="M631.74,932.82c.37,9.73.37,9.73-8.12,13.2-5.78,2.37-10.65,1.18-15-4-1.58-1.89-2.25-.57-3.53.21-6.77,4.13-14,6.51-21.84,3.62a15,15,0,0,1-10.14-12.19c-1.06-7-.21-13.32,6.34-17.84,7-4.82,14.9-7.17,22.71-10,2-.75,6-.07,6-4.37-.09-4.61-.47-9.17-5.17-11.44s-9.4-1.66-14.27-.34c-5.79,1.57-9.88,5.49-14.59,9.62,0-4.47.08-8.55,0-12.64-.1-3.91,3.1-5.44,5.49-7.1,9.18-6.36,25.94-6,34.8.66,5.14,3.87,7.5,9.43,7.55,15.82.09,11.33,0,22.67.06,34,0,2-1,4.67,1.49,5.86s4.34-.57,6.23-1.86C630.18,933.64,630.76,933.38,631.74,932.82Z"/><path d="M459.08,925.64c7.2,4.09,13.36,8.2,21,8.51,1.61.07,3.35.34,4.8-.15,2.78-.93,5.49-2.29,6.17-5.62s-1-5.48-3.52-7.08c-6.35-4-13-7.55-19.09-11.84-5.91-4.14-10.07-9.93-9.13-17.5,1.1-8.87,6.6-14,15.46-16a35.44,35.44,0,0,1,21.17,1.82,11.43,11.43,0,0,1,6.92,15.09c-.86,2.32-2.14.78-3.38.12-5.66-3-11.39-5.65-18.13-5.12-3.2.25-6.26,1-7.23,4s1.39,5.28,3.86,7.23c7.08,5.57,15.56,9.09,22.09,15.5,4.75,4.66,7.06,9.89,5.38,16.38-1.95,7.54-6.74,12.73-14.28,14.9-10.67,3.07-20.67.2-30.44-4-1.4-.6-1.72-1.77-1.69-3.23C459.13,934.53,459.08,930.42,459.08,925.64Z"/><path d="M540.92,862c0,4.25.2,7.58-.06,10.86-.22,2.78.91,3.32,3.39,3.23,4.82-.17,9.65.06,14.48-.09,2.47-.08,3.48.49,3.59,3.25.39,9.64.51,9.6-9,9.65-4,0-9.13-1.26-11.53.73s-.7,7.47-.77,11.41c-.13,7.32.5,14.69-.17,22-.95,10.26,7.66,12.26,14.3,10.63a45.45,45.45,0,0,0,10.83-4.58c0,1.27,0,2,0,2.69,0,11.54,0,11.54-11.5,14.56-11.84,3.09-23.07-2.48-26.73-13.18a25.36,25.36,0,0,1-.91-8.28c0-10.65-.16-21.31.07-32,.07-3.36-.95-4.26-4.19-4.09-2.49.13-6.41,1.37-7.28-.78-1.12-2.77,2.71-4.44,4.61-6.3C526.61,875.27,533.45,869,540.92,862Z"/><path class="cls-7" d="M754.63,407.51c5.42,3.32,3.92,6,2.88,9.57-2.26,7.78-7.92,13.31-13.83,18.24-14.08,11.74-29.9,20.61-46.68,28-6.52,2.88-13.14,5.6-19.55,8.74-1.74.7-2.05.94-4.12,1.67-9.72,4.13-19.8,5.66-29.92,7.44-7.06,1.24-14.13,3.29-21.45,2.6-1.62-.73-1.81-1.81-.69-3.12a6.27,6.27,0,0,1,2.11-1.29c2.61-1.32,5-2.58,8.27-2.76,1.48-.08,3.82-2.32,6.06-3.39,3.48-1.67,7.88-2.07,10.25-5.79,1.88-1.17,4-1.42,6.12-1.92,19.58-4.73,38.42-11.26,55.13-22.91,3.61-2.51,6.78-5.34,7.85-9.85.67-1.94,2.82-2.05,4.09-3.26,11.74-5,22.43-11.59,30.78-21.5A2.25,2.25,0,0,1,754.63,407.51Z"/><path d="M661.24,889.71c4-3.09,6.3-7.05,9.73-10.15A17.88,17.88,0,0,1,697,882.38c.82,1.15.4,1.71,0,2.52a21.5,21.5,0,0,1-2,3.36c-1.64,2-2,5.49-4.46,6.26s-3.81-2.49-5.91-3.65c-8-4.4-16.67-1.39-20.69,7.46-2.15,4.74-2.59,9.81-2.67,14.87q-.23,14.23,0,28.46c.05,3.1-.58,4.36-4.08,4.34-10.14-.06-10.14.12-10.14-9.87,0-18.31.08-36.62-.07-54.93,0-3.67.55-5.37,4.84-5.24,9.38.27,9.38,0,9.39,9.41Q661.24,887.54,661.24,889.71Z"/><path class="cls-8" d="M683.91,303c-1-3.33,1.56-5.22,3.51-6.72,6.3-4.87,11-11.32,17.11-16.39a99.49,99.49,0,0,0,16.77-18.36c2.49-3.45,5.92-6.08,9.36-8.55a10,10,0,0,0,3.88-6.66c.37-2.43,1.09-4.18,3.47-5.49l-3.9-2.45a284,284,0,0,1,31-14c2.16.89,1.56,2.33.51,3.56-3.67,4.29-7.46,8.47-8,14.51a3.55,3.55,0,0,1-1.81,2.32c-9.39,6-14.47,15.74-20.93,24.26a14.57,14.57,0,0,1-4.49,4.42c-4.82,2.68-5.43,4.34-4.16,9.86-3.27,4-8.24,4.78-12.58,6.78a5.23,5.23,0,0,0-3.56,1.83c-7.08,4.56-14.89,7.67-22.49,11.16C686.42,303.59,685.11,304.13,683.91,303Z"/><path class="cls-8" d="M267.09,296.83c-.79,1.74-1.79,3.93,1.37,3.78,3.58-.18,4.73,2.14,5.54,4.61.88,2.66,2.62,3.89,5,4.86s5.81.73,5.77,4.84c0,1,1.6.83,2.51,1.16,5.5,2,9.66,5.88,14.27,9.31,4,3,7,8.09,13.57,7.9,3.43-.1,7.78,1.53,9.3,5.7,1.2,3.28,5.34,3,6.54,6.07-1.22,1.22-2.71,1-4.18.72-13.36-3-26.72-6-39.93-9.6a4.53,4.53,0,0,1-1.72-.93c-1.09-.13,1.4-1.65-.7-1.63s-4.29-.34-3.16-3.43c.15-.4.34-.73-.11-.65-4,.73-4.48-4.31-8-4.78a9.73,9.73,0,0,1-6.18-4c-3.39-4.8-8.7-7-13.28-10a21.78,21.78,0,0,1-5.94-5.13c-3.28-4.65-8.47-7.19-12-11.48a1.52,1.52,0,0,1,1.17-.69C247.23,292.35,257.22,294.14,267.09,296.83Z"/><path class="cls-9" d="M372.07,441.62c-16.79-4-33.34-8.68-49.2-15.58-21.33-9.29-41.27-20.89-59.08-36,3-3.39,5.77-1.26,8.09.77,5.12,4.48,10.63,8,17.29,9.87,2.2.61,5.16-1.07,6.64,1.94,1.85,3.82,5.79,6.44,8.71,8.17a44.48,44.48,0,0,0,19.77,5.67,5.22,5.22,0,0,1,3.2.93c4.44,3.36,8.94,6.54,14.93,6.73,6.28.2,11.84,2.83,16.71,6.61,1.57,1.22,2.86,1.17,4.52,1.12,4.83-.16,9.68-.2,13.7,3.19.25.21.52.66.76.61,9.12-2.06,16.38,4.59,24.91,5.31,2.15.18,4.1-.92,6.23-.53.64.12,1.32,0,2,.09,2.68.25,8.11-2,9.24-3.83,5.17,3.19,5.27,8.18.29,12.93-2,.78-4.25.85-5.79,2.6a2.29,2.29,0,0,1-2.69.68c-4.91-1.82-10.39-1.84-14.91-4.85-.55-.37-1.17-.92-1.79-.75C386.66,449.8,379.88,443.62,372.07,441.62Z"/><path class="cls-10" d="M726,282.87c-3.55-3.75-1.94-7.7,1.57-9.08,4.42-1.75,6-5.47,8.46-8.52,5-6.16,8.47-14.09,14.55-18.65,4.63-3.47,6.4-6.82,7.89-11.74.83-2.74,3.73-4.92,5.86-7.19,1-1.07,1.84-1.9.77-3.33a49.74,49.74,0,0,1,15.67-5.44c1.18-.64,2.46-.35,3.71-.37,1.41.7.63,1.68.22,2.47a114.64,114.64,0,0,1-12.52,19.46c-1.19,1.46-2.33,2.73-2.32,4.73a4.24,4.24,0,0,1-1.82,3.38c-6.73,5.39-10.86,12.76-15.23,19.94-1.34.59-.19,1.88-.74,2.7a3.63,3.63,0,0,1-1.19.68c-3,.49-5.83,1.13-7.8,3.7a19.31,19.31,0,0,1-8.66,4.45c-1.69.27-3.57-.12-4.87,1.47C728.47,282.29,727.65,283.7,726,282.87Z"/><path class="cls-11" d="M852.08,910.5c0-10,.13-20-.08-30-.07-3.27.44-4.62,4.18-4.54,9.05.2,9.06,0,9.06,9.26,0,18.16-.12,36.32.09,54.48,0,4-.82,5.5-5.16,5.3-8.08-.37-8.1-.09-8.1-8Q852.08,923.75,852.08,910.5Z"/><path class="cls-11" d="M139.92,911.26c0,10.15-.1,20.3.06,30.45,0,2.85-.82,3.58-3.63,3.6-9.59.08-9.59.2-9.59-9.54,0-18,.06-35.94-.07-53.91,0-3.34.31-5,4.46-4.9,8.76.31,8.77,0,8.77,8.84Q139.92,898.53,139.92,911.26Z"/><path class="cls-12" d="M295,403a90.19,90.19,0,0,1-9.06-1.86c-3.69-1-6.57-3.51-10-4.91-1.09-.44-3-2.62-4.43-4.13-2.08-2.23-4.56-3.46-7.68-2-19.14-16.06-36.13-34-47.63-56.45-3.82-7.47-6-15.37-3.27-23.84a2.48,2.48,0,0,1,1,1.17,8.19,8.19,0,0,1,.43,2.23c-.53,11.18,4.85,20,11.29,28.44a13.35,13.35,0,0,1,2.63,4.77c2.25,5.3,5.28,9.85,11.2,11.59a4.56,4.56,0,0,1,2.83,2.6,5.28,5.28,0,0,0,2.65,2.85c4.28,1.64,7.4,4.86,10.66,7.84,1.22,1.11,2.37,1.33,3.51.47,1.31-1,.2-2.12-.36-3-1.47-2.35-3.69-4.45-2-7.62,1.19-.75,1.9.1,2.43.89,8.22,12.32,18.92,22.08,31.16,30.27a8.81,8.81,0,0,1,2.07,2.13c.54.75,1,1.57,1.59,2.28,1,1.37,3.22,1.24,3.83,3.11C297.8,401.68,298.25,403.93,295,403Z"/><path class="cls-13" d="M741,388c-4.31,3.14-9.34,4.81-14.14,6.95-2.52,0-3.22-2-1.65-3,2.86-1.89,4-5.15,7-6.93,11.75-7.19,21.86-16.3,31-26.59a6.54,6.54,0,0,0,1.56-4.46c1.25-1.83,2.72-3.34,5.09-3.53,3,1.08,4-1.27,5.28-3.18,3.06-4.6,6.68-8.64,11.56-11.41.44-.25,1-.42,1.2-.85,3.17-6.79,10.63-10.06,13.54-17.44,1.45-3.67,5.38-6.95,8.46-10,3.64-3.66,6.33-7.94,9.34-12,6.11-8.15,10.8-17.31,17.34-25.21,1.84-2.22,2.59-5,3.59-7.63,1.32-3.49,3.47-4,6.7-1.73l0,1.07c-.24,4.72-4.44,7.4-5.89,11.5a9.78,9.78,0,0,1-.55,1.28c-2.94,4.87-6.51,9.31-9.65,14.05a12,12,0,0,0-1.85,4.43c-2.44,3.64-4.15,7.62-7.7,10.71-2.34,2-3.25,5.92-5.58,8.53-6,6.71-11.18,14.12-17.23,20.79-6,3.3-9.65,9.14-14,14-7.22,8.11-15.56,14.93-23.34,22.38a182.54,182.54,0,0,1-16.67,13.85C743.48,384.26,741.1,385.8,741,388Z"/><path class="cls-14" d="M823,219.39a22.69,22.69,0,0,1,11.09,6.16c5.32,5,4.53,10,.83,15.79a172,172,0,0,0-11.26,20.27c-2.53,5.48-7.48,8.7-9.59,14.06-1,2.6-4.24,1.58-5.82,3.34a1.85,1.85,0,0,1-1.31.15c-1.06-1-1.17-2.86-2.79-3.46-2.49-2.82-6.28-4.59-7-8.81,3.4-1.65,5.17.86,7.16,2.81.69.68,1.28,1.7,2.47,1,.83-.48.83-1.33.71-2.19a9.71,9.71,0,0,1,1.9-7.06c4.55-6.28,7.08-13.82,12.23-19.7,4.07-4.63,5.08-10.4,6.39-16.08.25-1.09-.55-1.42-1.26-1.81a15.27,15.27,0,0,1-3.68-2.52A1.51,1.51,0,0,1,823,219.39Z"/><path class="cls-15" d="M765,354c1.25,1.87,2.7,3.93-.68,5-2.51.77-2.64,3.25-4,4.82-4.21,4.94-9.83,8.16-14.37,12.64a65.82,65.82,0,0,1-14.5,10.6c-2.44,1.35-2.48,5.24-6,5.81-.58.09.57,1.57,1.39,2.11-2,1.66-5.33,2.08-5.9,5-4.21-1.17-6.62,2.38-9.51,4.06-9.12,5.29-17.7,11.5-27.42,16,1,.49,2.34.55,2.11,2.11a4.72,4.72,0,0,1-2.49,1.69,12.72,12.72,0,0,1-9.64-2.39,2.71,2.71,0,0,1,1.63-3.69c3.91-1.72,6.75-5.11,11.12-6.26,4-1,7.26-4,10.6-6.36C708,397.52,719,390.45,729,381.8c6.66-5.77,14.15-10.89,21.51-16a10,10,0,0,0,2.59-2.95c.23-.38.47-.75.71-1.13C756.27,357.37,760.88,356,765,354Z"/><path class="cls-16" d="M846.83,261c-2.68-.8-4.51-1.26-5.65,2.69-1.1,3.8-2.21,8.29-6.85,10.18-.95.39-1.44,2.18-1.89,3.42a33.38,33.38,0,0,1-6.72,10.94c-4.58,5.1-7.08,11.68-11.83,16.58-3.85,4-6.5,8.91-11.2,12.35-1.63,1.19-3.05,5-4.53,7.64-1.23,2.2-2.47,4.06-5.09,5A4.72,4.72,0,0,0,790,334a3.32,3.32,0,0,1-3.58,3.38c-2,0-2.26,1.52-3.25,2.24-4.42,3.22-6.07,8.68-10.46,11.83-1.58,1.13-1.88,0-2.71-.46a3.07,3.07,0,0,1-1.37-2.43,3.85,3.85,0,0,1,1.63-2.39,111.66,111.66,0,0,0,29.08-32.77,14.82,14.82,0,0,1,2.4-3.14c5.6-6.18,11.76-12.25,15.79-19.3,5.19-10.24,14.14-18,18.92-28.54,1.83-4,2.59-8.61,5.89-12,1.16-1.18,2-2.68,3.87-2.83C847.75,252,847.12,256.5,846.83,261Z"/><path class="cls-17" d="M846.21,247.62c-5.91,5.47-6.84,13.78-11.32,20-4.3,6-7,13.24-13.53,17.51-.38.25-1,.74-.93,1,1.44,5.77-3.44,8.25-6,11.08-4.09,4.56-6.91,10.35-12.23,13.8a1.82,1.82,0,0,1-.35-1.86c3.85-8.06,4.74-16.75,5.4-25.48,1.06-1.55,1.9-.67,2.69.29.95,1.15.87,2.73,1.32,4.33,3.48-2.89,4.76-6.81,6.8-10.1,4.82-7.76,12.12-14.12,14-23.64.31-1.58,1.79-2.33,2.63-3.52,2.43-3.4,5.6-6.41,5.28-11.24a3.33,3.33,0,0,1,2.68-3.67A25.44,25.44,0,0,1,846.21,247.62Z"/><path class="cls-18" d="M842.64,236.11c-1,2.11-2,3.92-.92,6.65.89,2.34-2.32,4.28-3.61,5.64-4.64,4.9-5.39,11.68-9.18,16.68-3.56,4.7-6.3,10-10.28,14.34-2.36,2.6-2.76,6.43-5.43,8.81-.79.7-.9,2.39-2.47,2-1.79-.45-.83-1.81-.81-2.85A5.42,5.42,0,0,0,808,283c-1.88-1.56-2-2.23-1.15-3.88,1.72-.72,1.6-5.11,5-2.51.06,0,.42-.11.43-.18.28-6.22,8.82-7.18,8.69-13.57-.06-3,2.86-3.71,4.09-5.75,3.71-6.12,6-12.94,10.31-18.79,3-4.17,1.46-8.73-1.31-12.76A23.63,23.63,0,0,1,842.64,236.11Z"/><path class="cls-19" d="M798,333c3.86-6.81,9.21-12.43,14.36-18.22a64.88,64.88,0,0,0,4.52-5.72c3.75-5.32,7.42-10.7,11.12-16.06a150.29,150.29,0,0,0,12-19h0c3-1.41,3.76-.67,4.1,4A24.15,24.15,0,0,1,841,288c-6.09,4.4-9,11.33-13.48,17-5.71,7.24-10.89,14.86-16.9,21.93-4.23,5-7.92,10.39-13,14.65a2.94,2.94,0,0,1-2.89-.42C793.25,337.43,796.81,335.68,798,333Z"/><path class="cls-20" d="M372.07,441.62c3.49-1.65,6.23,1.24,9.2,2,4.75,1.14,8.85,5.46,14.23,1.81a1.45,1.45,0,0,1,1.36.24c2.2,5,7.77,2.4,11.28,4.88,1.64,1.15,5.06,2.44,7.46-.64,1-1.34,3.1-.87,4.77-.73-.53,4.57-3.72,6.88-7.39,8.81-11.19.86-22-1.25-32.76-4-2.38-.62-5,.07-7.2-1.43-1.37-.93-3.15-1.46-2.09-3.69C371.25,446.39,372.73,444.18,372.07,441.62Z"/><path class="cls-21" d="M798,341c0-.33,0-.81.17-1,5.68-4.37,8.84-10.89,13.6-16.08,5.36-5.84,9.67-12.64,14.37-19.08,3.77-5.17,7.41-10.45,11.17-15.63.89-1.22,2-2.35,3.73-1.23-.08,3-1.67,5.46-3,8-3.15,4.38-6.82,8.43-8.51,13.7-.89,2.78-3.24,4.68-5.06,6.52-2.68,2.72-3.47,5.81-4.3,9.12a41.34,41.34,0,0,1-8.66,9.91c-3.57,3.23-7.69,5.38-9.38,10a46.38,46.38,0,0,1-8.93,8,16.1,16.1,0,0,1-2-.41c-2.85-1.93-1.57-3.85.15-5.58C793.45,345.11,795.9,343.24,798,341Z"/><path class="cls-22" d="M370.92,448.78c2.29,5,7.36,2.89,11.06,4.06a97.36,97.36,0,0,0,19.17,4c3.86.4,7.91-.28,11.87.2.1,3.53-2.4,5.81-4.1,8.47-5.55.67-11.13,1.5-16.45-1.17-1.54-.77-3.2-.63-4.83-.85A50.36,50.36,0,0,1,369.21,457,13.05,13.05,0,0,1,370.92,448.78Z"/><path class="cls-23" d="M548,490.72l-1,.24c-5.06.07-9.27,3.17-14.31,3.81s-10.28.57-15.35,1.48c-12.14,2.19-24.46,1.94-36.69,2.92-1.47.66-3.15-.09-4.6.72a133.45,133.45,0,0,1-23-3.11c.29-2.18,2-.82,3-1.2-1.69-.59-3.59.86-5.25-.47,2.1-4.32,6.3-3.29,9.44-2.8,4.48.69,8.57,1.41,13.27.45,2.8-.57,6.47-.09,9.57.34,6.42.9,12.49.89,18.43-1.89a4.17,4.17,0,0,1,2-.13c6.85,0,13.64,1.22,20.54-.87,4.64-1.4,9.79-.42,14.67-1.71a24.49,24.49,0,0,0,5.38-2.18C549.23,486.24,549.68,486.75,548,490.72Z"/><path class="cls-24" d="M798,333c1.39,3.56-3.4,4.81-3,8-6.92,9.34-15.81,16.77-24,24.92-2.34,2.34-5.47,3.51-7.79,6-2.13,2.31-4,4.8-6,7.19C752.3,383,746.58,385.36,741,388c-.05-.75-1.76-1-.89-1.84a81.92,81.92,0,0,1,8.75-7.9c10.89-7.88,20.29-17.46,30-26.62a85.64,85.64,0,0,0,13.18-15C793.35,334.68,795.25,333,798,333Z"/><path class="cls-25" d="M564.92,480.67c-1.52-.26-2.64.78-3.95,1.2a76.77,76.77,0,0,0-21,1.48c-7.28,1.49-14.52,2.89-22,3.11a1.65,1.65,0,0,1-1.45-1.52c3-4.21,7.63-5.78,12.21-7.42a16.64,16.64,0,0,0,10.72-.74,9.24,9.24,0,0,1,4.33-1c10.16.86,19.57-3,29.22-4.94,6.83-1.39,13.49-1,20.24-1a4.12,4.12,0,0,1,1.38.59c1.17,2.43-.9,3.16-2.28,3.16-9,0-16.71,5.25-25.54,5.69a9.1,9.1,0,0,1-1.94.22c-.37-.06-.74-.35-1.15-.09C564.44,479.59,565,479.8,564.92,480.67Z"/><path class="cls-26" d="M757.21,379.12c-.71-.22-2.18-.75-1.69-1.07,1.65-1.06,2.37-3.34,3.05-3.87,4.56-3.52,8.66-7.64,13.37-10.93s7.66-8.37,12.21-11.9c3.26-2.54,6.59-5.34,8.14-9.55.37-1,1.72-.76,2.7-.8h3c-.12,2.67-1.72,4-4,5.29-3.38,2-3.73,3.6-2,5.73-.06,3.35-3.82,3.9-4.9,6.48A167.27,167.27,0,0,1,757.21,379.12Z"/><path class="cls-27" d="M369.21,457c2.67-.19,5.43-.19,7.25,2,3,3.64,7.39,1.91,11,2.94,6.83,2,14,4,21.36,3,2,2.43,4.08,4.77,4.33,8.11-10.23-.41-20.46-1.13-30.23-4.43-3.64-1.23-7-3.33-10.93-3.67C369.89,462.75,369.51,459.88,369.21,457Z"/><path class="cls-28" d="M408.65,487.11l-.35.05-.27-.22a5.05,5.05,0,0,0-5-1.08c-1.39-.7-3.16-.42-4.32-1.7.32-2,1.38-2.33,3.45-2.44,6.71-.35,13.15,1.34,19.68,2.17,7,.89,14.07,1.93,21.14,1.7,3.6-.11,7,1.55,10.62.55,8.4,1.54,17.25.49,25.2,4.49.6,2.59-1.22,2.86-2.83,2.46-4.05-1-8.13-.11-12.22-.49-8.86-.82-17.81,0-26.71-.21a72.34,72.34,0,0,1-12-1.91c-3.36-.69-6.71-1.07-10.09-1.42h0C413.28,487,410.75,487.73,408.65,487.11Z"/><path class="cls-29" d="M393,481.92A36.35,36.35,0,0,1,379,473c0-2.68,1.37-3.62,3.77-2.86,9.47,3,19.38,3.39,29.09,5,3.25.53,6.16,2.6,9.61,2,5.33,1.58,11,2,15.79,5.32,0,2.54-1.37,2.93-3.58,2.59-9.56-1.45-19.25-1.67-28.81-3.2a9.73,9.73,0,0,1-3.29-1A6.62,6.62,0,0,0,393,481.92Z"/><path class="cls-30" d="M518,486c5.7-1,11.61-1.34,17-3.14,7.26-2.41,15-.44,22.11-3.36,2-.84,2.87,1.06,3.83,2.37-3.41,4.29-8.24,6.5-13,8.84,1.39-4.17-1.53-3.7-4-3.71-10.59,2.75-21.23,4.65-32.17,2.11C511.63,483.61,515.83,486.81,518,486Z"/><path class="cls-31" d="M480,499a6.3,6.3,0,0,1,4.51-1.81A244.3,244.3,0,0,0,515,494.93c10-1.28,20.11-1.33,29.84-4.38.87-.27,1.58-.38,2.2.4-18.75,9-38.69,10.71-59.08,9.77A31.92,31.92,0,0,1,480,499Z"/><path class="cls-32" d="M590,484.73a63.78,63.78,0,0,1-15-2c-.49-3.59,1.92-5.83,4.66-5.33,3.8.7,6.17-1.86,9.07-2.32,5.87-.94,11.37-3.72,17.47-3.38,3.14.17,6.33.31,9.4-.72,3.33-.19,6.6-1.18,10-.64,1,.65,2.2,1.68,1,2.69-1.71,1.51-3.94,2.67-6.3,2.16-1.39-.3-2.63-1.26-4.17-.53,1-.15,2.3-.65,2.64.5.5,1.66-1.22,1.91-2.18,1.87-9.28-.42-16.83,6.44-26,6.15A1.81,1.81,0,0,1,590,484.73Z"/><path class="cls-33" d="M133.6,864.93c-4.91,0-8.62-3.54-8.5-8.19.1-4.15,4.2-8,8.48-7.94,4.72.05,7.71,3.29,7.66,8.31A7.67,7.67,0,0,1,133.6,864.93Z"/><path class="cls-33" d="M858.38,848.07c5.07,0,8.57,3.25,8.54,8a8,8,0,1,1-16.07-.2A7.5,7.5,0,0,1,858.38,848.07Z"/><path class="cls-34" d="M420.94,478c-.77.23-1.72.88-2.27.63-6.32-2.84-13.34-2.22-19.71-4-5.42-1.48-11.41,0-16.3-3.47-2.27-1.6-2.7.66-3.67,1.79-2.86-2.19-5.6-4.49-7-8,1.79-1.58,3.23-1.27,5.49-.21,4.68,2.2,9.39,4.52,14.78,5,4.62.4,9.09,1.72,13.9,1,2.07-.33,3.88,3,6.71,2.26C416.47,473.2,419.26,474.68,420.94,478Z"/><path class="cls-35" d="M727,402.06l1,0c1.57.89,3.33.11,4.95.55,1,.55,2.58.64,1.9,2.47-5.39,1.42-9.6,4.64-13.9,8.11-5.27,4.26-11.72,6.83-17.58,10.3.65.84,2.88.46,2.47,2.17s-2.35,1.53-3.69,2a4.26,4.26,0,0,1-3.34-.55c-1.46-1.73-3.49-1-5.32-1.24a2.6,2.6,0,0,1-1.71-1c3.61-4.09,8.54-6.37,12.84-9.52,5.64-4.14,12.25-7,16.65-12.76C723.18,402.4,725.2,403.31,727,402.06Z"/><path class="cls-36" d="M393,481.92c.94-4.36,4.11-4.17,7.23-3.23,9.14,2.75,18.33,4.84,28,3.74a7.88,7.88,0,0,1,4.7,1.14c1.78,1,3,.71,4.27-.68,4.67-2.3,9-.12,13.4,1A4.47,4.47,0,0,1,453,487c-1.66,3.31-3.24-.31-5-.18a104.82,104.82,0,0,1-17.19-.08,124.67,124.67,0,0,1-19.19-3.16c-3.74-1-7.5.4-11.11-1-.37-.14-1.21,1-1.83,1.52Z"/><path class="cls-37" d="M721,430c-.08,2.36-2.43,1.11-3.36,2.11-1.94-.36-3.61-1.08-4.16-3.23.28-2.09,1.94-3,3.48-3.95a145.77,145.77,0,0,0,19.71-14.14c2.42-2,6-1.91,7.82-4.71-.81-.32-2.77,0-2.64-2.2a1.77,1.77,0,0,1,1.49-.23,48.63,48.63,0,0,1,8.66,2.39,8.07,8.07,0,0,1-3.61,4.29c-8.46,5.52-15.43,13.16-24.83,17.32C722.43,428.16,721.88,429.25,721,430Z"/><path class="cls-38" d="M615,472.16c-1.24,1.22-2.89,1.08-4.26.78-7.29-1.62-13.74,3.2-20.91,2.58-1-.09-2.42,1.14-3.14,2.13-1.6,2.17-3.38,2.06-5.51,1.11-.91-.41-.72-.08-2,1.08s-4.32-.4-4.15,2.9c-3.4-.57-6.9-.66-10.14-2.07l-3.14-1.14c10.35-.28,19.17-7.33,29.74-6.68a4.59,4.59,0,0,0,3.47-1.73c.23-.24.44-.66.7-.68C602.23,469.87,608.75,469.43,615,472.16Z"/><path class="cls-39" d="M590,484.72l0-1.72c4.33-1.38,8.85-.83,13.27-1.29,3.74.68,7.45-.39,11.19-.17,2.25.14,4.6-.23,6.51,1.45,8.4.38,16.33-2.24,24.47-3.51,9.45-1.47,18.14-5.67,27.66-6.44-6,4-13.13,5.08-19.89,6.86-15.38,4-31.17,5.63-47,6C600.81,486.05,595.41,485.15,590,484.72Z"/><path class="cls-40" d="M686,422c-.62-1.46-2.55-.42-3.52-2.09,4.51-2.49,9.29-4.6,13.47-7.29,4.43-2.85,9.45-5.15,13.23-8.73,2.34-2.22,6-2,7.66-5.54,1.15-2.44,2.41,1,4.13,1.66a2,2,0,0,0,.9,1.17l-.29.64c-10.41,6.45-21.24,12.26-30.92,19.86A4.09,4.09,0,0,1,686,422Z"/><path class="cls-41" d="M721,430c-.06-1.4.15-2.6,1.63-3.3,5.21-2.47,10.35-5.3,14.35-9.37,3.85-3.92,9.42-5.63,12.47-10.43.47-.75,2,.44,2.54-.85,1.23.53,1.63.95,2.63,1.46-5,6.58-12.3,11.54-19,15.95C731.31,426.33,726.94,430.25,721,430Z"/><path class="cls-42" d="M820.15,325.37c-2.52-6.61,3.4-9.47,6.25-13.6a17.13,17.13,0,0,0,2.09-3.26c2.08-4.9,4.91-9.44,9.54-12.49A104.32,104.32,0,0,1,820.15,325.37Z"/><path class="cls-43" d="M414.95,489.06c6.31-1.29,12.27.92,18.34,1.92a4.83,4.83,0,0,0,2.71,0c1.36,1.34,3.11,1.06,4.73,1A15.52,15.52,0,0,1,451,495h6c-1,1.82-3.11.33-3.94,1.79C440.27,494.67,427.48,492.49,414.95,489.06Z"/><path class="cls-12" d="M823,219.39V221l-.59.49c-3.09.48-5.81-1.88-8.94-1.1-4.63.36-8.69-3-13.42-2-1.42.11-2.83,0-4.25,0-1.75-.1-3.59.12-4.91-1.44C801.79,215.22,812.56,215.18,823,219.39Z"/><path class="cls-44" d="M213.07,311l-.18-1.24c.94-7.57,6.91-13.73,15.23-15.4,2.89-.58,5.87-.67,8.82-1l-.84.81c-3.74,2.94-8.78,2.72-12.69,5.25-4.84,2.39-7.19,6.75-9.07,11.49A1,1,0,0,1,213.07,311Z"/><path class="cls-45" d="M844.1,278c-1.5-1.21-.38-5.09-4.1-4,.28-5.13,5.32-7.54,6.85-12A58.45,58.45,0,0,1,844.1,278Z"/><path class="cls-46" d="M802.1,345.28c-1.37-2.76.29-4.46,2.24-5.85,1.62-1.16,2.71-2.07,3.17-4.46.7-3.67,2.66-.12,4,.31A73.2,73.2,0,0,1,802.1,345.28Z"/><path class="cls-47" d="M790.9,216.94l5.15.19c2.1,1.79.52,2.66-1,2.89-3.4.53-6.92,1.33-10.08-1l-4.21-.13A37,37,0,0,1,790.9,216.94Z"/><path class="cls-3" d="M698,255.15l-4.9,3.7-.71-.55,4.32-7.22C697.29,252.38,694.66,254.71,698,255.15Z"/><path class="cls-48" d="M480,499a20.59,20.59,0,0,1,7.92,1.77l-11.86-.85C477.13,498.54,478.65,499.14,480,499Z"/><path class="cls-49" d="M787.1,358.49c.12-3.3,3.83-3.89,4.9-6.48l1.17,1.26A18.22,18.22,0,0,1,787.1,358.49Z"/><path class="cls-43" d="M408.65,487.11c2.35-.16,5.24-2.08,6.28,2C412.82,488.47,410.47,488.63,408.65,487.11Z"/><path class="cls-50" d="M727,402.06c-1.51,1.15-2.89,3-5,.95-.62-.5-.52-1.09-.2-1.7l.09-.14A41.55,41.55,0,0,0,727,402.06Z"/><path class="cls-51" d="M735,405l-2-1.85c1-1,2.33-.45,3.32-.26a5.26,5.26,0,0,1,1.67.26c.9.47,1.68,1,.91,2.17a3.25,3.25,0,0,1-3.42.2Z"/><path class="cls-43" d="M403,485.86c1.88-.63,4.08-2.74,5,1.08C406.19,487.36,404.7,486.19,403,485.86Z"/><path class="cls-50" d="M736.34,402.89l-3.32.26c-1.64-.46-3.59.49-5-1.05A36.64,36.64,0,0,1,736.34,402.89Z"/><path class="cls-4" d="M310.26,300.95c2.87-.6,3.68.52,2.67,3.18Z"/><path class="cls-50" d="M739,405l-1-1.84a21.74,21.74,0,0,1,5.33.52c-.32.13-.83.47-1.16.6-.49.39-.79,1-1.42,1.23A1.7,1.7,0,0,1,739,405Z"/><path class="cls-2" d="M718.79,165l-1.41,1.15a5.77,5.77,0,0,1-.33-1.72c.16-1.33,1-.76,1.73-.52Z"/><path class="cls-52" d="M615,472.16l-20-1-1-.15c-5.94-1.18-12.1-1-17.95-2.8-4.45-1.24-9-2.2-13.5-3.1-11.18-2.22-20.57.74-28.31,9-1.75,1.68-3.49,3.38-6,3.95l-11.34,6.67c-12,5.94-24.87,6.71-37.7,5.05-7.79-1-15.75-1.22-23.4-3.36-1.59-.44-3.28-.51-4.79-1.28-4.57-1-9.13-2.21-13.86-2.28L420.95,478l-8.07-5c-1.64-2.53-3.92-4.73-4.06-8,.05-3.37,2.67-5.4,4.2-8,3.12-2,5.3-4.88,7.35-7.88,3.83-5.22,3.75-8.27-.32-12.26-2.43-.46-4.07-2.53-6.41-3.16a25,25,0,0,0-5.75-1.66,12.53,12.53,0,0,1-1.35-.32c-2.54-.57-5.07-1.14-7.65-1.49a15.64,15.64,0,0,1-2.18-.42,57.65,57.65,0,0,0-8.22-1.5c-9.41-2-18.84-4-28.17-6.31-14.61-4.07-29.2-8.23-43.34-13.78a11.35,11.35,0,0,1-1.37-.55c-7.07-2.78-13.68-6.5-20.44-9.92-1.24-.67-2-1.89-3.19-2.65-11.92-8.51-23.54-17.34-31.83-29.74-1-1.49-2.1-2.9-3.16-4.34-3.41-1.78-4.55-5-5.33-8.44a31.14,31.14,0,0,1-.62-13.09c2.17-5.81,6.77-8.45,12.54-9.54,7.5-.59,14.54,1.2,21.39,4.05,15.17,4.37,30.52,8,46,11a26.3,26.3,0,0,0,9.75,2.06c3,1,6.39.14,9.27,1.82A59.41,59.41,0,0,0,370.18,351c10.87-.71,15.41-9,9.87-18.43A68.31,68.31,0,0,0,365,315c-17-19.33-34.44-38.31-48.85-59.77-2-3-4.37-5.78-5.7-9.2-4.93-9.62-9.11-19.48-11.12-30.21-4-21.09,7.17-45.65,25.31-55.32a32.76,32.76,0,0,1,10.26-3.64,36.61,36.61,0,0,1,21.12,0c22,4.29,39.4,15.74,53.1,33.3q27.51,35.25,55.31,70.28c6,7.5,12.92,13.77,23.1,15.09a25.89,25.89,0,0,0,8.4-.63,24.27,24.27,0,0,1,4.11-1.83c10.2-5.93,13.52-16.24,16.94-26.52,7.8-23.46,13.51-47.57,22-70.8,6.33-17.33,15.42-33,29.73-45.21,15.65-13.33,33.73-16.25,53.25-12.35,11.34,2.27,21.89,6.73,30.76,14.36,13.41,11.52,18.49,26.64,18.7,43.89.17,14-2.8,27.38-7.07,40.57-.69,1.25-1.55,2.45-1.36,4-1.45,5.2-2,10.72-5.77,15l-1.7,4.87c.55,1.38-.09,2.38-1.07,3.26-5.79,15.46-11.69,30.89-17.28,46.42-1.53,4.25-3.42,8.71-1.33,13.43,1.38,6.29,5.83,8.62,11.72,9.3A37.55,37.55,0,0,0,670,309c1.32-1.55,3.52-.92,5-2,3.12-1,6.26-1.93,8.88-4,9.06-3.21,17.37-8,26-12.09a13.56,13.56,0,0,1,3.2-1.79A66.44,66.44,0,0,0,726,282.87l3-2c1.49-1.29,3.27-1.39,5.17-2,3.08-1.14,5.86-2.6,8.79-4a30.73,30.73,0,0,1,7.92-3.76,8.86,8.86,0,0,1,1-.49,6.75,6.75,0,0,1,3.32-2.52,9.1,9.1,0,0,1,1.38-.53,130.9,130.9,0,0,1,19.75-5.6c7.25-1,14.07.13,20.23,4.3l.4.72,7.85,8c1.64.85,1.38,2.71,2.12,4h0A25.72,25.72,0,0,1,808,283c1,9.95-1.44,19.17-5.8,28-8.33,15.07-19.78,27.41-33.24,38-4.94,5.49-11.73,8.31-17.78,12.17-2.5,1.59-5.33,2.65-7.77,4.38-5.15,2.44-10.2,5.09-15.33,7.59a11.79,11.79,0,0,1-1.18.7c-1.45.69-2.89,1.42-4.34,2.11-14.81,6.82-29.76,13.31-44.92,19.31a34.85,34.85,0,0,0-13.27,8.64c-5.12,5.58-4.58,9,2.11,12.93,2.42,1.48,5.72,1.3,7.54,3.93,3.28.87,6,2,10,2.45,2.83,0,5.73-.66,8,1.67l1.9.2c2.07.63,3.56-.45,5,1,1.8.32,2.1.32,3.5.56,2.62-.54,4.72-.13,7.35.37,1.67.26,2.26,1,4.12,2.18s2.42,1.17,3.72,3c1.12,3.9-1.24,6.35-3.78,8.54-8.41,7.24-18.33,11.9-28.42,16.22-6.6,2.83-13.44,5.16-20.16,7.57-5.42,1.94-11.5,2.79-17.35,3.83-3.37,3.23-7.91,2.09-11.85,3.18-3.37.75-6.74,1.63-10-.28Z"/><path class="cls-53" d="M356.06,156.85a70.33,70.33,0,0,0-21.12,0,2,2,0,0,1,2.07-1.77q8.49,0,17,0A2,2,0,0,1,356.06,156.85Z"/><path class="cls-54" d="M500.07,273.05a4.58,4.58,0,0,1-4.11,1.83A3.69,3.69,0,0,1,500.07,273.05Z"/><path class="cls-2" d="M657.24,236c1.7-5.1,2.94-10.37,5.77-15,4.33,3.15,4.3,3.43-1.22,6.86,2.44,1.08,6.14.2,6.17,4,0,2.22-.46,3.93-2.76,5.27C662,239,659.66,238.1,657.24,236Z"/><path class="cls-2" d="M654.47,244.18l1.08-3.26c.81.12,2-1,2.38.6.16.63.52,1.51.25,1.89-1.48,2,.84,6.25-1.84,6.41C653.38,250,656,245.89,654.47,244.18Z"/><path class="cls-2" d="M264.62,222.14c-.05,1.87,2,2.81.47,4.23a1.39,1.39,0,0,1-1.36,0C262.44,225.06,262.88,223.86,264.62,222.14Z"/><path class="cls-52" d="M792.9,934.08c-12.66,0-12.66,0-12.67-12.25,0-7.81.05-15.62,0-23.43a6.79,6.79,0,0,1,2.31-5.66c5.71-5.24,12.18-7,19.43-4.33,7.69,2.87,10.79,9.46,12.07,17a31.37,31.37,0,0,1-.44,13.64C811,928.42,802.63,935.39,792.9,934.08Z"/><path class="cls-52" d="M89,911.52c.88,10.47-5.34,20.84-14.94,23-5.75,1.29-11.4.59-17-.87-1.56-.41-2.24-1.38-2.22-3.22.11-11,.08-21.94,0-32.9A4.28,4.28,0,0,1,56.31,894c11-10.11,25.88-7,30.73,6.09C88.45,904,89.78,907.9,89,911.52Z"/><path class="cls-55" d="M350,348.92c-3.28.35-6.29-.68-9.27-1.82C343.84,347.69,347.54,345.15,350,348.92Z"/><path class="cls-56" d="M675,307c-3.72,1.49-1,.42-5,2C670.67,305.86,673.2,307.3,675,307Z"/><path class="cls-52" d="M182.43,904.09c2.34-14.14,14.11-21,25.13-15.29,5.33,2.77,7.49,7.42,8.51,12.91.4,2.13-.81,2.55-2.57,2.38-.49,0-1,0-1.49,0Z"/><path class="cls-52" d="M924,903.08c-4.48,0-9-.11-13.43.05-2.28.08-3.13-.81-2.57-2.86,2-7.43,7.3-13.72,16.54-14.33,7.76-.51,14.36,4.56,16.36,12.39.86,3.38.2,5.21-4,4.83S928.3,903.08,924,903.08Z"/><path class="cls-52" d="M397.5,904.08C399,889.2,412.13,884.91,422,888.84c6,2.39,7.56,7.6,9,12.94.61,2.18-.94,2.31-2.61,2.31C418.11,904.06,407.82,904.08,397.5,904.08Z"/><path class="cls-52" d="M608.08,911.79c0,5.57,0,10.71,0,15.84,0,4.47-3.75,7.9-10,9.27-4,.89-8.61-1.6-10.39-5.67A9.38,9.38,0,0,1,591,919.52C596,916,601.62,914,608.08,911.79Z"/><path class="cls-57" d="M636,470.27l12-2c-.28,1.68-.75,3.78-2.67,3.57-4.19-.47-6.52,4.65-10.9,3.39a2.71,2.71,0,0,1-1.67,3.1c-2.12.85-4.08-2.09-5.66.46-1.32,2.13-4.4,1.24-5.8,3.27a2.93,2.93,0,0,0-.25.95H603c0-2.57,2.19-2,3.59-2.46,9.48-3,19-5.89,28.34-9.21C635.36,471.17,635.63,470.64,636,470.27Z"/><path class="cls-58" d="M713.16,289.11c-1.6.87-.72.46-3.2,1.79C710.25,288.93,711.66,288.94,713.16,289.11Z"/><path class="cls-59" d="M285,334c-7.26-1-14.36-3.14-21.77-2.93-1.21.53-2.29-.25-3.45-.31-8-5-14.65-11.6-21.48-18-2-1.81-3.7-3.7-6.21-4.78s-5.15-2.72-5.35-5.41c-.21-2.87-3.82-1.18-3.72-3.64,1.88-3.15,5.66-2.31,8.33-3.9,1.31-.78,3.16-.63,4.77-.9,6.45,2,9.49,8.15,14.38,12,3.31,2.64,6,6.15,10.59,6.82a2.55,2.55,0,0,1,1.68.84,24.12,24.12,0,0,0,17.62,11.85c-.43,1.74-2,.81-2.54,1.78,1.15.56,2.24,1.41,3.6.95.67-.23,2-.93,1.33.31-2.2,4,.44,4,3,4.3.12,0,.22.16.33.24Z"/><path class="cls-60" d="M397,429l1.93.19c2.42,1.83,5.47.86,8.09,1.8a1.37,1.37,0,0,1,.88.15c1.49,2.36,4.31.42,6.08,1.87a8.17,8.17,0,0,1,6,3.87c0,2.46-.34,4.93.82,7.26-5.08,1.13-8.76-3.59-13.69-2.15-.89.26-1.87-.44-2.33,1-.21.64-.69,1.89-1.65.78-2.84-3.27-7.21-3.11-10.79-4.46-2.41-.91-5.26-1.35-7.79-2.43-.75-.32-2-1.25-2.05-1.16-4.61,5.79-7.17-3.74-11.37-1.62-.25.13-2.12-1.1-3.49-1.13-4.27-.12-7.87.51-12.22-3.22A22.7,22.7,0,0,0,338.3,425a4.15,4.15,0,0,1-3.93-1.65c-1.92-2.23-4.06-3.73-7.42.84,1.31-8.36-4.24-6.59-7-6.94-4-.49-7.58-3.48-11.89-2.3-.68.19-1-.33-1.33-1-1-2.29-1.08-2.25-3.59.78,1.2-7.16-7.3-6.36-8.1-11.69,2.65-.31,1.83-2.38,2-3.94,3.73,1,7,3.06,10.42,4.75A42.85,42.85,0,0,0,316,407l.05,0c7.76,4.93,16.92,6,25.33,9.11a97.33,97.33,0,0,0,18.9,4.8L389,427.16C391.42,428.9,394.43,428.06,397,429Z"/><path class="cls-61" d="M756,268.88c-.33.11-.47.15-.8.27A2.93,2.93,0,0,1,752,269c-.3-3.4,2-5.53,3.93-7.76,3.87-4.55,5.57-11,11.67-13.63.41-.18,1-.69,1-1.06.15-7,6.18-10.25,9.28-15.33,2.43-4,4.09-8.47,7.13-12.15,3.14,0,6.28-.08,9.41,0,1.42,0,2.34-.19,1.66-1.9l3.95,0c1.49,1.76,5.19-.19,5.61,3.11.39,3-2.34,4.1-4.13,5.76-3.64,3.37-6.39,7.19-5.83,12.52.3,2.84-1.47,3.82-3.78,4.31s-3.35,1.07-3.83,4.28c-.52,3.44-.08,8.91-5.71,10.18-2.08.47-1,3-2.31,4.1a7.52,7.52,0,0,1-5.29.49c-2-.36.06,1.55-1,1.55C767.38,263.9,761.59,266.12,756,268.88Z"/><path class="cls-62" d="M750.88,271.17c-3.06,1.38-4.72,2.17-7.92,3.76C744.63,271.55,747.4,270.86,750.88,271.17Z"/><path class="cls-63" d="M734.17,278.92a35.41,35.41,0,0,0-5.17,2C729.84,277.8,732.31,279.16,734.17,278.92Z"/><path class="cls-64" d="M752,269l3.17.09c-1.25.71-1.89.67-3.3,1.59C751.75,270.06,750.93,269.56,752,269Z"/><path class="cls-44" d="M227,347c-.42-3.68-3.26-6.15-5.24-8.76a60,60,0,0,1-7.16-12.83c-1.74-4-.54-8.34-1.57-12.4,2.35-.15,2.8,1.79,2.86,3.27.11,2.82,1.52,4.34,3.71,5.85,4.22,2.91,7.13,7.33,11.16,10.44,6.66,5.13,11.86,12.07,19.69,15.72a6.39,6.39,0,0,1,2,4.61,9.77,9.77,0,0,0,.24,2.47,3.28,3.28,0,0,1-1.54,3.85,3.46,3.46,0,0,1-4.56-.64c-3.84-4.25-9.1-6.62-13.3-10.36a10,10,0,0,1-1-1,9,9,0,0,1-2.06-3.3C229.6,345.43,230.24,348.23,227,347Z"/><path class="cls-65" d="M250,349c-5.91-2.52-11.19-6-14.75-11.4-1-1.49-1-2.44-3-1.15-1.61,1-3.13,1.14-2.14-2,.64-2-2.86-3.57-3.64-4-4-2.18-5-8.22-10.64-8.05-1.11,0-.85-1.59-.86-2.54,0-2.48.21-5-2-6.86q0-1,0-2l.94,0c2-1.61,3.65-1,5.13.83,5.4,6.51,10.82,12.89,18.41,17.18,2.89,1.64,4.85,4.9,8,6.65,2,1.12,3.38,1.78,4.84-.79,2.07-3.66,5.75-4.61,9.66-4.87l3.21,1.1A15.59,15.59,0,0,0,252.1,339C249.59,342,252.36,346,250,349Z"/><path class="cls-66" d="M227,347c3.13-.3,1.29-3.77,3.42-5l2.58,5c4,2.89,8.76,4.72,12.17,8.56,1.32,1.48,2.52,4,5.08,3.1S251.77,355,252,353c.3-.48.61-.46.92,0,.51,3.11,2.74,5.33,4.08,8-.38,2.91,1.1,4.95,2.86,7.08,1.08,1.31,1.37,3.26,2,4.83-1.48,1.39-2.94-.53-4,.4-2,1.83-2.41.83-3.21-1.16-.55-1.38-1.48-3.69-4-2.3-.6.33-1.63.57-1.41-.25,1.2-4.49-3-3.42-4.77-4.69-1.37-1-2.77-1.85-3.32-3.48-.38-1.13-.56-2.14-2-2.44C232.46,357.68,229.58,352.48,227,347Z"/><path class="cls-9" d="M316,407c-7.28-.37-13.13-4.15-19-7.93-1.54-.28-3.69.62-4-2.05a1.66,1.66,0,0,1,2.18-.1Z"/><path class="cls-67" d="M295.18,396.9,293,397l-1-1.89A3.12,3.12,0,0,1,295.18,396.9Z"/><path class="cls-68" d="M742.74,364.87,769,349a2,2,0,0,1,1,2l-5,3c-2.92,3.92-8.52,4.55-11,9-2.22,0-4,1.16-5.93,2S744.46,366.75,742.74,364.87Z"/><path class="cls-45" d="M840,274c-2.89,7-5.31,14.37-12,19-.49-4.48,3.71-6.54,5.3-10S837.71,277,840,274Z"/><path class="cls-12" d="M823,221c2.53-.32,4,2,6.24,2.58,1,.27,3,2.36-.13,3.4-.55.19-1.46,0-1.27,1,1.51,8.63-6.3,13-8.82,19.53-2.89,7.52-11.39,12.47-9.87,21.89.23,1.42-1,2.75-2.4,3.4-1.81.81-2-.89-2.81-1.83-1.81-2.19-4.06-1.48-7-4h0c-.54-1.71-4.24-1.67-2.56-4.62,4.91-1.49,8.51-3.69,10.62-9.23,1.4-3.68,2.36-8.85,7.32-10.65a2.5,2.5,0,0,0,1.45-2.48c-.43-3.9,1.7-6.82,4-9.28,2.74-2.86,2.48-7.08,5.2-9.8Z"/><path class="cls-18" d="M806.92,279.11a10.36,10.36,0,0,0-2.12-4C807.75,275.24,806.82,277.44,806.92,279.11Z"/><path class="cls-17" d="M742.74,364.87c2.88.93,5-1,7.22-2.15,1.67-.87,2.79-1.52,4,.28h0c-1.33.56-1.7,1.75-2,3-10.2,9.4-22.3,16.33-32.65,25.66-7.68,6.93-17.5,11.43-26,17.5-6.15,4.38-14,5.9-19.27,11.59-2.77-.88-5.67-1.41-8.06-3.24-.25-.26-.5-.73-.34-.85,3.85-3,5.86-8.3,11.51-9,3.89-.48,7.16-3,10.17-4.84,7.41-4.62,15.46-8.55,22-14.12,3.74-3.17,9.09-4.66,11.46-9.57.65-1.35,2.58-1.36,3.94-1.93a3.17,3.17,0,0,0,2-4.47C732.19,369.88,737.08,367.38,742.74,364.87Z"/><path class="cls-69" d="M692,424.86c-3.52-.69-4.6-.92-8.19-1.7A2.41,2.41,0,0,1,686,422a20.37,20.37,0,0,0,6.32-3.19c7.61-6.13,16.92-9.75,24.4-16.19,1-.84,3.42-.6,5.08-1.31L722,403c-4,6.81-11.25,9.52-17.35,13.66C700.5,419.49,696.82,423,692,424.86Z"/><path class="cls-68" d="M752,366c-1.1-2.18,0-2.85,2-3Z"/><path class="cls-70" d="M451,495c-4.83,0-9.17-2.89-14.11-2.41-.25,0-.6-1-.9-1.57,7.85.09,15.72.6,23.54.13,5.3-.32,10.33,1.19,15.54,1.13,1.59,0,2.9.08,3.92-1.26a3.66,3.66,0,0,1,3.22-1c7.08.58,14.19-1.31,21.25.33A1.19,1.19,0,0,1,504,492c-5.36,1.3-10.57,4.65-16.21,2.86-4.58-1.45-9.41,2.14-13.92-1.31-.56-.43-4.13,1.19-6.7,1.19C461.79,494.74,456.3,491.11,451,495Z"/><path class="cls-70" d="M504,492q0-.5,0-1c-1.07-2.16.56-2.58,2-2.77,2-.27,4.17-.75,6,.78,10.74.53,21.35-1.11,32-2-2.6,4.52-7.54,2.69-11.29,3.74-4.11,1.15-8.63.95-13,1.82A34.92,34.92,0,0,1,504,492Z"/><path class="cls-71" d="M576,467.14A121.23,121.23,0,0,1,594,471c-3.82,0-7.63,0-11.45,0-6.2,0-11.94,2.2-17.9,3.34-4.43.85-8.69,3.36-13.27,2.58-6.45-1.1-12.13,2-18.25,2.72-2.22.25-3.39-.61-4.87-1.57l4.42-4.24c5.56-3,12-1.9,17.88-3.75,3.21-1,6.72-1.12,10-2.62C565.53,465.14,570.82,466.2,576,467.14Z"/><path class="cls-72" d="M512,489c-2.62.84-6.16-2-8,2H479c-6.67-3.14-14.35-.46-21.07-3.64-1.39-.66-3.27-.26-4.93-.35l-2-1.85c11,1.29,22,3.37,33.06,3.8s22.07-1.39,32.83-4.22L518,486C516.67,488.36,512.62,485.23,512,489Z"/><path class="cls-73" d="M636,470.27c-.09,1,1.24,2.12-1.18,2.81-10.66,3.06-21.2,6.57-31.79,9.91H590c-.16,0-.37,0-.48-.08a4.2,4.2,0,0,1-.53-.61c7.59-.94,14.7-3.46,21.79-6.19,2-.78,4.59-.12,7.18-.12-.64-1.65-2.42-.44-3.18-1.76,3.55-.9,7.2,0,10.6-1.22,1.24-.43.9-1.08.64-1.85Z"/><path class="cls-51" d="M709.9,427.82c-2.22-.44.47-.22-8.75-1.42,1-.44,2.91-.46,4-.91-.91-1-3,0-3.22-1.58s1.56-2,2.61-2.51a106,106,0,0,0,23-14.95c2.44-2.14,5-1.07,7.51-1.45h0c1.27,2.87-1.28,3.63-2.77,5-5.29,4.69-12,7.53-16.7,13C713.45,424.35,710.42,424.62,709.9,427.82Z"/><path class="cls-69" d="M698.94,426c-1.94-.29-2.51-.55-5-1C695.44,425.72,697.09,423.54,698.94,426Z"/><path class="cls-74" d="M709.9,427.82c-1.18-3.12.29-4.51,5.09-4.83,8.17-6.71,17.29-12.06,26-18l1.19-.73,4.49,2.15c-10.29,5.3-18.09,13.37-27.8,18.73-1.81,1-4,1.86-4.95,4A15.84,15.84,0,0,0,709.9,427.82Z"/><path class="cls-47" d="M780,261c-.69-3.89-.69-3.89,3.73-4.74a1.36,1.36,0,0,0,.76-.51c1.41-1.94-.8-5,1.58-6.42,4-2.36-.73-3.66-.42-5.87,2.29-.05,3.74-2.56,6.61-1.88a2.2,2.2,0,0,0,2.5-2.84c-1.39-6.1,1.73-10.33,6-13.86,4.86-4,5-3.87-.21-6.44-.33-.16-.38-.88-.56-1.33,5-1.43,9.15,2.59,14,1.92.83.57,1.65,1.12,1.69,2.3.18,5.6-4.53,11.69-9.65,12.77-.55,6.14.69,12.78-6.45,16.28-1.32.65-1.43,2.11-1.9,3.35A13.54,13.54,0,0,1,785.29,262C783.5,261.77,781.52,262.55,780,261Z"/><path class="cls-75" d="M786,261.22c5.48-.61,9.33-4,10.34-9,.18-.91.8-2.41,1.35-2.47,6.37-.7,5.06-6.7,7.15-10.29a4.55,4.55,0,0,0,0-3.87c-1.63-2.78-.68-3.21,1.91-2.6,2.1.49,2.88-2.2,4.88-1.94.25,0,.54-.31.81-.48-3.43-4.16,2.51-5.8,2.41-9a8.15,8.15,0,0,0-.82-2.32c3.37-1,6,1.51,9,2,1.59,2.19-4.33,5,.83,6.72-4.93,3-9.31,6-8.43,12.52a2.58,2.58,0,0,1-.89,2.18c-4.09,1.88-5.22,5.94-7.43,9.28-1.5,2.27-3.19,3.93.83,7.08-6.43-.92-8.29,6.39-13.91,4.22C790.91,264.21,787.79,265.35,786,261.22Z"/><path class="cls-76" d="M260,330c-3.83,2.2-8.79,3-10.17,8.25-.21.8-1.29,1.68-1.85.9-2.43-3.38-7.53-3.4-9.29-7.56a2.84,2.84,0,0,0-1.22-1.52c-7.68-2.92-12-9.81-17.74-15-1.75-1.57-1.83-5.51-5.72-4.1.41-5.81,3.94-10.53,9-12l5.36.55c-2.54,3.28.15,5.43,2.41,6.42,4.08,1.8,6.85,4.76,10,7.71C246.82,319.46,253.54,324.6,260,330Z"/><path class="cls-77" d="M741,405c-3.38,5.62-9.54,8.19-14.58,11.41C722.88,418.66,720,423,715,423c-.45-2.57,1.66-3.39,3.2-4.49,4.73-3.38,9.57-6.6,14.24-10,1.11-.82,2.52-1.71,2.57-3.45l4,0Z"/><path class="cls-78" d="M726.72,372.72c4.61,2.7,1.25,4.74-.82,5.49-2.69,1-5.12,1.67-5.94,4.76,0,.14-.21.26-.36.34-8.65,4.4-15.11,12.31-24.58,15.4a3.5,3.5,0,0,0-1,.81c-5.46,4.82-11.51,8.5-18.89,9.53-.33,0-.91.08-.94.2-.89,4.58-6,4.93-8.17,8.24-7.31-3-8.58-8.06-3.34-13.8a38.7,38.7,0,0,1,14.44-9.48c14.73-6,29.42-12.06,43.75-19,.57-.18,1.3-.63,1.78-.79,1.63-.66,3.13-.23,4.09-1.75Z"/><path class="cls-79" d="M576,467.14c0,.59,1.06,2.11-.57,1.43-6.19-2.59-11.9-1.73-17.41,1.74a2,2,0,0,1-.88.44c-8.28.14-16.18,3.25-24.49,3.08,8.22-9.17,18.27-12.63,30.39-9.92C567.41,464.88,571.86,465.39,576,467.14Z"/><path class="cls-80" d="M360.27,420.87c-6.53.83-12.3-2-18.28-3.8-6.9-2.13-13.9-4-20.72-6.3-1.92-.66-4.61-1-5.23-3.8q16.93,5.41,33.86,10.83C353.33,418.9,357,419.1,360.27,420.87Z"/><path class="cls-81" d="M786,261c2,3.33,5.29,1.48,8,2-.23,2.23,4.46.9,2.93,4.06a38.93,38.93,0,0,0-20.6-3.94c-.87.37-1.72.57-2.44-.29.07-.61-2.14-1.38-.09-1.75A36.15,36.15,0,0,1,780,261Z"/><path class="cls-82" d="M773.87,262.83l2.44.29L756,268.88C761.08,264.34,767.32,263.12,773.87,262.83Z"/><path class="cls-83" d="M252.91,353H252a5.54,5.54,0,0,0-2-4c.77-3.31-1.94-7.34,2.08-10C251.24,343.76,252.25,348.38,252.91,353Z"/><path class="cls-84" d="M407.07,431c-2.69-.64-6.07,1.82-8.09-1.8A17.9,17.9,0,0,1,407.07,431Z"/><path class="cls-84" d="M414,433c-2.1,0-4.26.34-6.27-.09s.24-1.14.19-1.78C410.3,430.68,412.2,431.72,414,433Z"/><path class="cls-85" d="M397,429c-2.76-.26-5.92,1.24-8.06-1.81A18.76,18.76,0,0,1,397,429Z"/><path class="cls-17" d="M726.72,372.72c-.3,2.92-2.46,1.61-4.09,1.75C724.39,373.68,724.94,373.53,726.72,372.72Z"/><path class="cls-44" d="M233,347a2.49,2.49,0,0,1-2.29,2.72C230.76,347.93,231.46,347.11,233,347Z"/></svg>